<?xml version="1.0" encoding="UTF-8"?>
<svg id="Layer_1" xmlns="http://www.w3.org/2000/svg" version="1.1" viewBox="0 0 595.28 841.89">
  <!-- Generator: Adobe Illustrator 29.5.1, SVG Export Plug-In . SVG Version: 2.1.0 Build 141)  -->
  <defs>
    <style>
      .st0 {
        fill: #d71b5a;
      }
    </style>
  </defs>
  <path class="st0" d="M210.61,457.72c23.49-10.02,40.98-23.54,40.96-43.54-.02-17.5-17.02-21.48-34.02-25.47-3-.5-6.51-7.49-6.51-13.49-.01-13.5,10.98-22.51,25.48-22.52,22-.02,44.02,17.96,44.05,50.96.03,35.5-31.95,59.03-63.94,68.06l-6.01-14ZM298.61,457.64c23.49-10.02,40.98-23.54,40.96-43.54-.02-17.5-16.52-21.48-33.52-25.47-3-.5-6.51-7.49-6.51-13.49-.01-13.5,10.48-22.51,25.48-22.52,22-.02,44.02,17.96,44.05,50.96.03,35.5-31.94,59.03-63.94,68.06l-6.51-13.99Z"/>
</svg>